<svg width="128" height="128" viewBox="0 0 128 128" fill="none" xmlns="http://www.w3.org/2000/svg">
<mask id="mask0_1857_33535" style="mask-type:alpha" maskUnits="userSpaceOnUse" x="0" y="0" width="128" height="128">
<circle cx="64" cy="64" r="64" fill="#C4C4C4"/>
</mask>
<g mask="url(#mask0_1857_33535)">
<circle cx="64" cy="64" r="64" fill="white"/>
<mask id="mask1_1857_33535" style="mask-type:alpha" maskUnits="userSpaceOnUse" x="13" y="-50" width="141" height="149">
<path d="M13.4864 6.77071L153.136 -49.343L132.219 98.7462L13.4864 6.77071Z" fill="#2E69AF"/>
</mask>
<g mask="url(#mask1_1857_33535)">
<path d="M-6.15247 1.65515L158.576 -64.4985L133.913 110.112L-6.15247 1.65515Z" fill="#F6AFAD"/>
<path d="M124.966 -52.0427C117.442 -43.5495 87.2538 -5.95832 115.752 21.1033C118.318 23.5275 120.662 26.1769 122.755 29.0197L122.817 29.1058C142.153 55.4906 130.638 87.6798 127.712 94.7815L69.5381 57.5177C75.2539 53.9183 94.5148 39.4048 75.3593 16.9912C57.3917 -4.03174 69.6267 -20.5982 74.9985 -26.1947L124.966 -52.0427Z" fill="#ED4D3F"/>
</g>
<circle cx="64" cy="59.904" r="29.184" fill="#273675"/>
<path d="M67.595 93.184C76.579 93.1751 85.4479 95.3809 93.534 99.6357C111.783 109.237 125.921 128.631 128 151.552L8.192 151.552C10.2674 128.619 23.3997 109.222 41.6489 99.6357C49.7372 95.3798 58.6086 93.1739 67.595 93.184Z" fill="#2E69AF"/>
</g>
</svg>
